<svg width="281" height="230" viewBox="0 0 281 230" fill="none" xmlns="http://www.w3.org/2000/svg">
<path d="M144.436 53.5087L148.164 54.1482C194.839 56.1754 231.408 87.0753 239.633 133.252C240.874 140.229 243.969 154.931 235.968 158.461C229.336 161.39 217.959 160.373 210.77 160.156C170.587 158.96 130.346 155.225 90.1121 156.613C76.6239 157.08 61.7095 157.732 48.7458 161.626C47.0766 162.125 38.0077 164.805 42.4974 167.222C46.3283 169.287 57.7827 168.475 62.5409 168.584C116.698 169.805 171.163 169.888 225.365 168.936C231.53 168.827 239.838 167.593 245.786 168.277C250.499 168.814 249.61 172.734 247.25 175.58C240.17 184.13 225.947 190.621 214.966 191.292H80.3781C67.5742 190.378 58.8187 181.936 51.0162 172.657C45.7911 172.613 35.8844 171.967 37.4769 164.293C38.2891 160.367 46.2132 158.186 49.59 157.271C62.0037 153.908 75.0378 153.198 87.8544 152.718C126.483 151.279 165.055 154.375 203.645 155.935C211.601 156.255 226.305 157.77 233.57 155.072C238.507 153.236 237.311 145.805 236.877 141.527C231.069 84.236 181.12 51.2642 125.518 59.0659C78.5553 65.6589 47.4923 105.569 46.6672 152.079C45.5225 154.336 43.1753 153.217 42.9131 150.934C42.3311 145.921 43.6486 138.24 44.6463 133.195C49.3917 109.131 61.6584 87.6956 81.2223 72.8148C97.5884 60.3704 117.395 54.3337 137.957 53.8157L133.851 51.9292C122.998 45.8477 127.097 29.413 139.095 28.2107C156.965 26.4202 161.71 49.416 144.448 53.5023L144.436 53.5087ZM140.144 32.5209C133.966 33.1987 129.63 39.5616 133.013 45.3042C136 50.3689 144.282 51.0084 148.324 46.8517C154.56 40.4441 148.171 31.6384 140.144 32.5209ZM56.5355 172.491C56.3884 173.054 56.7658 173.137 57.0152 173.463C62.6113 180.702 72.6907 186.969 81.9961 187.398L214.019 187.417C225.652 186.784 236.813 181.073 244.334 172.331C240.631 172.683 236.857 172.402 233.129 172.478C182.585 173.502 131.952 173.617 81.331 173.156C73.7715 173.086 65.905 173.105 58.3007 172.836C57.674 172.817 57.1431 172.568 56.5355 172.498V172.491Z" fill="#4D4D4D"/>
<path d="M271.502 0.092633C276.983 -0.681143 277.801 3.52027 278.083 7.93271C278.473 14.0845 277.629 21.1892 277.405 27.3858C276.036 65.7996 272.698 103.779 275.473 142.167C276.823 160.769 279.49 179.34 280.654 197.936C281.351 208.993 282.624 231.017 265.886 229.552C254.56 228.561 254.298 213.316 254.4 205.073C254.675 183.081 258.851 160.341 260.22 138.272C260.661 131.136 261.231 123.283 258.608 116.549C255.788 109.297 249.597 104.584 246.917 97.1088C244.577 90.5669 244.832 84.7412 244.992 77.9882C245.466 57.966 248.676 35.9997 257.029 17.7168C259.274 12.8056 265.784 0.891988 271.502 0.0862381V0.092633ZM272.87 3.89756C272.602 3.69293 271.099 4.93353 270.773 5.20211C257.892 15.8751 251.618 46.9924 249.885 63.1074C248.791 73.288 247.346 89.0897 251.829 98.3686C253.556 101.937 256.658 104.955 258.807 108.255C265.42 118.423 264.818 126.276 264.115 137.959C262.868 158.608 259.184 179.679 258.282 200.213C258.02 206.25 257.764 216.13 260.732 221.425C263.424 226.227 269.442 226.982 273.209 222.915C278.518 217.178 276.983 202.118 276.439 194.7C274.54 168.52 270.709 142.544 270.293 116.223C269.775 83.3918 273.145 50.4776 273.862 17.6912C273.964 13.1445 274.181 8.25885 272.87 3.89756Z" fill="#4D4D4D"/>
<path d="M5.05783 13.7264C7.19394 11.9806 8.26839 14.3787 8.22362 16.3995C8.13408 20.5625 6.81021 25.7615 6.29857 30.0397C4.80201 42.6183 2.04554 60.7605 6.84858 72.527C11.2551 83.3215 17.8617 86.9985 18.271 100.338C18.6227 111.612 16.5762 126.404 15.6616 137.959C13.9796 159.126 10.8138 181.367 10.1359 202.464C9.89925 209.952 9.70099 225.779 20.6885 225.588C31.5609 225.402 30.5888 206.806 30.2562 199.561C29.1242 174.998 25.37 149.623 23.4514 124.984C22.6391 114.541 20.6821 101.221 24.1805 91.3534C27.1224 83.0593 33.8121 76.754 35.9482 68.1017C37.4192 62.1162 37.061 56.1946 36.7477 50.1003L33.0766 14.9798C33.9145 12.6649 36.2488 12.8247 37.0674 15.0885C38.3977 29.5856 41.7873 45.6111 41.2885 60.1402C40.8856 71.8299 37.2337 76.0314 31.8231 85.3678C24.2764 98.3941 26.291 109.259 27.3462 123.686C29.1882 148.785 32.7505 174.154 34.1511 199.234C34.6755 208.622 35.4302 228.222 22.313 229.54C6.34334 231.145 5.79972 212.766 6.26659 201.505C7.30906 176.181 10.9481 150.077 12.7453 124.658C13.3528 116.101 14.8622 104.437 13.6854 96.1687C12.2912 86.4166 4.14327 79.5357 1.48913 69.7772C-1.92608 57.2177 1.26529 31.3122 3.75954 18.0877C3.9578 17.0325 4.32874 14.3083 5.05783 13.7136V13.7264Z" fill="#4D4D4D"/>
<path d="M18.3475 13.7136C19.7097 12.6201 21.897 14.0014 21.833 15.7216V62.7493C21.9162 66.5862 17.5097 66.567 17.5992 62.7493C18.6481 47.7086 16.2497 30.8646 17.5992 16.035C17.6568 15.4338 17.9126 14.0589 18.3539 13.7072L18.3475 13.7136Z" fill="#4D4D4D"/>
</svg>
