<?xml version="1.0" encoding="UTF-8"?>
<svg id="Camada_2" data-name="Camada 2" xmlns="http://www.w3.org/2000/svg" viewBox="0 0 439.38 359.11">
  <g id="Camada_1-2" data-name="Camada 1">
    <g>
      <path d="M225.84,83.67l5.83,1c72.98,3.17,130.16,51.49,143.02,123.7,1.94,10.91,6.78,33.9-5.73,39.42-10.37,4.58-28.16,2.99-39.4,2.65-62.83-1.87-125.75-7.71-188.66-5.54-21.09.73-44.41,1.75-64.68,7.84-2.61.78-16.79,4.97-9.77,8.75,5.99,3.23,23.9,1.96,31.34,2.13,84.68,1.91,169.84,2.04,254.59.55,9.64-.17,22.63-2.1,31.93-1.03,7.37.84,5.98,6.97,2.29,11.42-11.07,13.37-33.31,23.52-50.48,24.57H125.68c-20.02-1.43-33.71-14.63-45.91-29.14-8.17-.07-23.66-1.08-21.17-13.08,1.27-6.14,13.66-9.55,18.94-10.98,19.41-5.26,39.79-6.37,59.83-7.12,60.4-2.25,120.71,2.59,181.05,5.03,12.44.5,35.43,2.87,46.79-1.35,7.72-2.87,5.85-14.49,5.17-21.18-9.08-89.59-87.18-141.15-174.12-128.95-73.43,10.31-122,72.72-123.29,145.45-1.79,3.53-5.46,1.78-5.87-1.79-.91-7.84,1.15-19.85,2.71-27.74,7.42-37.63,26.6-71.15,57.19-94.42,25.59-19.46,56.56-28.9,88.71-29.71l-6.42-2.95c-16.97-9.51-10.56-35.21,8.2-37.09,27.94-2.8,35.36,33.16,8.37,39.55ZM219.13,50.85c-9.66,1.06-16.44,11.01-11.15,19.99,4.67,7.92,17.62,8.92,23.94,2.42,9.75-10.02-.24-23.79-12.79-22.41ZM88.4,269.73c-.23.88.36,1.01.75,1.52,8.75,11.32,24.51,21.12,39.06,21.79l206.43.03c18.19-.99,35.64-9.92,47.4-23.59-5.79.55-11.69.11-17.52.23-79.03,1.6-158.2,1.78-237.35,1.06-11.82-.11-24.12-.08-36.01-.5-.98-.03-1.81-.42-2.76-.53Z"/>
      <path d="M424.52.14c8.57-1.21,9.85,5.36,10.29,12.26.61,9.62-.71,20.73-1.06,30.42-2.14,60.07-7.36,119.46-3.02,179.49,2.11,29.09,6.28,58.13,8.1,87.21,1.09,17.29,3.08,51.73-23.09,49.44-17.71-1.55-18.12-25.39-17.96-38.28.43-34.39,6.96-69.95,9.1-104.46.69-11.16,1.58-23.44-2.52-33.97-4.41-11.34-14.09-18.71-18.28-30.4-3.66-10.23-3.26-19.34-3.01-29.9.74-31.31,5.76-65.66,18.82-94.25,3.51-7.68,13.69-26.31,22.63-27.57ZM426.66,6.09c-.42-.32-2.77,1.62-3.28,2.04-20.14,16.69-29.95,65.35-32.66,90.55-1.71,15.92-3.97,40.63,3.04,55.14,2.7,5.58,7.55,10.3,10.91,15.46,10.34,15.9,9.4,28.18,8.3,46.45-1.95,32.29-7.71,65.24-9.12,97.35-.41,9.44-.81,24.89,3.83,33.17,4.21,7.51,13.62,8.69,19.51,2.33,8.3-8.97,5.9-32.52,5.05-44.12-2.97-40.94-8.96-81.56-9.61-122.72-.81-51.34,4.46-102.81,5.58-154.08.16-7.11.5-14.75-1.55-21.57Z"/>
      <path d="M7.91,21.46c3.34-2.73,5.02,1.02,4.95,4.18-.14,6.51-2.21,14.64-3.01,21.33-2.34,19.67-6.65,48.04.86,66.44,6.89,16.88,17.22,22.63,17.86,43.49.55,17.63-2.65,40.76-4.08,58.83-2.63,33.1-7.58,67.88-8.64,100.87-.37,11.71-.68,36.46,16.5,36.16,17-.29,15.48-29.37,14.96-40.7-1.77-38.41-7.64-78.09-10.64-116.62-1.27-16.33-4.33-37.16,1.14-52.59,4.6-12.97,15.06-22.83,18.4-36.36,2.3-9.36,1.74-18.62,1.25-28.15l-5.74-54.92c1.31-3.62,4.96-3.37,6.24.17,2.08,22.67,7.38,47.73,6.6,70.45-.63,18.28-6.34,24.85-14.8,39.45-11.8,20.37-8.65,37.36-7,59.92,2.88,39.25,8.45,78.92,10.64,118.14.82,14.68,2,45.33-18.51,47.39-24.97,2.51-25.82-26.23-25.09-43.84,1.63-39.6,7.32-80.42,10.13-120.17.95-13.38,3.31-31.62,1.47-44.55-2.18-15.25-14.92-26.01-19.07-41.27-5.34-19.64-.35-60.15,3.55-80.83.31-1.65.89-5.91,2.03-6.84Z"/>
      <path d="M28.69,21.44c2.13-1.71,5.55.45,5.45,3.14v73.54c.13,6-6.76,5.97-6.62,0,1.64-23.52-2.11-49.86,0-73.05.09-.94.49-3.09,1.18-3.64Z"/>
    </g>
  </g>
</svg>