<?xml version="1.0" encoding="UTF-8"?>
<svg id="Camada_2" data-name="Camada 2" xmlns="http://www.w3.org/2000/svg" viewBox="0 0 181.34 198.51">
  <g id="Camada_1-2" data-name="Camada 1">
    <path d="M111.25,120.9v32.69l25.13,20.85c5.7,6.67,3.48,19.37-6.81,19.08-4.31-.12-24.52-8.13-25.5-7.24-3.24,16.31-23.38,16.31-26.61,0-1.04-.93-22.7,7.28-26.96,7.2-9.12-.18-10.21-12.88-5.36-19.05,4.4-5.6,16.67-13.28,22.64-19.07.46-.44,1.16-.64,1.79-.69v-33.76l-57.45,19.07c-4.63,1.07-9.72.29-11.05-4.83-1.99-7.68-1.71-20.14,5.33-25.31l62.81-43.53c2.48-18.59-4.83-43.84,8.25-59.28,6.68-7.88,16.01-9.7,24.11-2.51,15.73,13.96,7.36,43.24,10.05,61.79l62.82,43.53c6.58,4.6,7.16,12.58,6.84,20.05-.46,10.63-4.47,12.3-14.51,9.17l-55.51-18.15Z"/>
  </g>
</svg>