<?xml version="1.0" encoding="UTF-8"?>
<svg id="Camada_2" data-name="Camada 2" xmlns="http://www.w3.org/2000/svg" viewBox="0 0 199.62 198.03">
  <g id="Camada_1-2" data-name="Camada 1">
    <path d="M5.02,98.89c-4.44-.96-6.91-8.44-3.24-11.86,19.08-20.17,39.12-39.56,58.6-59.22,6.04-6.1,19.97-23.22,26.65-26.53,3.59-1.78,6.02-1.73,9.59.29l21.32,21.12c17.13-15.63,44.87-16.56,62.79-1.75,30.94,25.57,22.46,74.36-15.13,87.77l.05,79.64c0,3.3-5.11,9.68-8.28,9.68h-46.35v-65.01c0-2.05-2.87-3.1-4.63-3.27-6.24-.63-25.77-.85-31.62.09-1.42.23-4,1.78-4,3.19v65.01H24.42c-2.23,0-7.55-4.69-7.55-6.82v-92.31c-3.45-.5-8.68.69-11.86,0ZM155.37,66.76c5.99,5.95-4.47,13.02-11.24,7.29-1.16-.99-2.17-3.6-3.66-4.24-8.73-3.71-9.89,8.76-.75,13.68,1.36.73,3.75.89,4.38,1.37,1.16.88.65,8.41,6.82,8.34,5.07-.06,3.88-6.04,5.01-7.97.36-.62,5.91-3.13,7.48-4.74,7.35-7.57,3.8-18.71-5.99-21.87-4.05-1.31-12.3-.86-13.76-5.69-.78-2.58.99-6.38,3.81-7.05,6.36-1.5,6.15,1.36,10.03,4.04,10.45,7.22,13.04-6.08,4.09-11.27-1.45-.84-5.11-1.4-5.7-2.25-.43-.61.94-5.65-3.19-7.55-6.1-2.8-6.33,6.3-7.88,7.9-.81.84-3.56,1.24-5.01,2.18-8.19,5.29-9.25,18.24-.26,23.19,4.28,2.35,13.46,2.28,15.84,4.64Z"/>
  </g>
</svg>