<?xml version="1.0" encoding="UTF-8"?>
<svg id="Camada_2" data-name="Camada 2" xmlns="http://www.w3.org/2000/svg" viewBox="0 0 194.35 136.69">
  <g id="Camada_1-2" data-name="Camada 1">
    <path d="M23.99.21l156.5-.21c6.79.53,12.47,2.93,13.27,10.44,1.14,10.68-.73,23.43-.15,34.33-1.27,4.68-5.71,4.41-8.98,6.11-11.4,5.93-12.27,25.18-.72,31.18,3.71,1.93,8.59,1.41,9.68,6.84s.9,30.64.18,36.49c-.59,4.82-4.16,8.55-8.63,10.05-52.61,2.48-105.71.34-158.49,1.09-4.78-.15-9.24-2.01-11.73-6.24-1.03-1.75-1.53-5.69-2.6-6.74-2.22-2.19-10.54.84-11.83-7.57-.62-3.99-.58-27.03.43-30.37,1.36-4.49,5.08-3.68,8.43-5.22,8.04-3.71,8.16-14.84.69-19.21-3.89-2.28-7.59-.84-9.1-6.7C-.23,49.97-.2,28.55.43,23.36c1.11-9.2,8.42-5.11,11.91-8.21,3.93-3.49.5-13.23,11.65-14.94ZM77.88,50.85c-4.61,4.37-33.28-2.43-22.1,12.03,4.74,6.13,14.25,8.13,13.57,17.15-.39,5.13-6.82,19.08.07,21,4.79,1.33,15.49-9.03,20.48-9.08,6.04-.06,17.12,12.29,22.94,8.57,5.45-3.48-2.57-19.08-.68-25.11,1.37-4.36,24.66-17.83,11.66-21.64-5.02-1.47-18.13-.92-21.29-3.86-5.05-4.72-4.42-23.74-14.48-20.84-4.61,1.33-7,18.77-10.17,21.78Z"/>
  </g>
</svg>