<?xml version="1.0" encoding="UTF-8"?>
<svg id="Camada_2" data-name="Camada 2" xmlns="http://www.w3.org/2000/svg" viewBox="0 0 203.28 205.58">
  <g id="Camada_1-2" data-name="Camada 1">
    <path d="M183.62,49.68h13.29c.67,0,3.77,2.81,4.28,3.62,2.49,3.93,2.77,26.82.69,30.81-.47.9-4.24,4.37-4.97,4.37h-13.29v81.54c0,2-2.7,8.55-4,10.37-1.71,2.38-5.74,4.15-5.95,4.47-1.05,1.64,1,9.06-3.82,14.51-6.78,7.66-27.96,7.79-35.12.85-4.42-4.28-3.82-7.53-4.96-13l-55.64-.22-1.06,1.1c.13,19.63-31.28,22.65-40.66,9.52-3.77-5.27-1.6-10.08-2.73-12.01-.24-.41-5.7-3.51-7.35-5.94-.87-1.28-3.28-7.04-3.28-8.22v-82.97H5.04c-1.54,0-4.35-3.67-4.63-5.43-.6-3.82-.57-24.29.3-27.64.41-1.57,3.54-5.73,5.05-5.73h13.29v-19.76c0-12.81,13-27.21,25.7-28.91,35.8,1.55,74.31-2.69,109.8-.22,15.63,1.09,29.07,14.52,29.07,30.56v18.32ZM70.59,23.25c-4.64,2.52-3.27,8.23,1.99,8.49,17.88-1.19,37.69,1.55,55.34-.03,5.93-.53,9.94-2.81,4.67-8.23l-61.99-.22ZM106.73,52.14v62.19h59.65v-62.19h-59.65ZM95.23,52.55h-58.21v61.78h58.21v-61.78ZM51.93,135.33c-13.88,2.19-14.62,24.33-.12,26.35,21.51,2.99,19.77-29.45.12-26.35ZM161.4,148.65c0-7.36-5.97-13.33-13.33-13.33s-13.33,5.97-13.33,13.33,5.97,13.33,13.33,13.33,13.33-5.97,13.33-13.33Z"/>
  </g>
</svg>