<?xml version="1.0" encoding="UTF-8"?>
<svg id="Camada_2" data-name="Camada 2" xmlns="http://www.w3.org/2000/svg" viewBox="0 0 111.93 201.49">
  <g id="Camada_1-2" data-name="Camada 1">
    <g>
      <path d="M31.59,51.19c1.31,1.28,4.62.48,5.63-.82,1.56-2.02.31-30.59.62-36.01.13-2.29.76-9.82,1.85-11.08,2.16-2.5,7.36-1.84,8.82,1.19,1.25,13.33-1.2,28.4.15,41.52.24,2.32.58,5.59,3.39,6,3.2.14,4.83-2.47,5.16-5.33l.38-42c2.83-5.17,10.15-3.28,10.48,2.54-1.58,17.78,2.15,39.25-.2,56.58-1.5,11.08-14.27,17.8-22.74,24.08.13,1.18.63,2.28.63,3.5.01,20.61.77,41.29,1.37,61.84.3,10.03,3.09,26.61-.13,35.73-5.08,14.39-16.42,17.09-24.98,4.66-6.17-8.96-2.92-27.54-2.68-38.21.5-22.52,1.18-44.87,2.14-67.41C12.13,81.96,1.46,72.45.47,61.11c-1.51-17.44,1.21-36.99-.01-54.66C1.23.64,9.94.04,11.12,5.2l.2,42.9c.75,4.77,6.4,5.55,7.84.75l.33-42.77c1.37-5.77,9.81-6.49,10.5,1.09,1.14,12.47-1.42,27.26-.05,39.56.13,1.14.89,3.73,1.65,4.46Z"/>
      <path d="M88.82,126.87c-8.14-1.53-16.38-9.89-16.46-18.38-.24-25.57,4.87-60.03,10.41-85.14,1.6-7.24,2.83-21.24,11.49-22.28,3.68-.44,10.27-1.56,13.51-.84,2.65.59,4.31,3.26,4.14,5.92l-.21,180.89c-4.4,18.95-24.03,18.95-27.07-.31.11-19.99,3-39.91,4.19-59.86Z"/>
    </g>
  </g>
</svg>