<?xml version="1.0" encoding="UTF-8"?>
<svg id="Camada_2" data-name="Camada 2" xmlns="http://www.w3.org/2000/svg" viewBox="0 0 99.27 165.65">
  <g id="Camada_1-2" data-name="Camada 1">
    <g>
      <path d="M74.73,100.87c-12.73-3.06-14.66-11.25-14.19-23.08.69-17.23,4.97-55.84,15.02-69.53,6.15-8.38,20.66-13.25,23.72-.1l-.05,147.01c-2.47,9.19-12.23,13.47-20.61,8.21-5.97-3.75-6.33-8.81-6.16-15.32.3-11.84,2.02-23.82,2.43-35.67.06-1.66.31-11.15-.15-11.5ZM88.41,8.56c-6.27.83-11.12,14.26-12.66,19.54-4.01,13.71-8.34,42.96-6.85,56.86.98,9.17,8.41,6.68,12.49,10.14,2.52,2.13,1.9,8.17,1.83,11.32-.29,12.03-2.16,24.23-2.43,36.27-.07,3-.32,7.32.01,10.16.67,5.73,8.02,6.05,10.28,1.32l.48-141.87-.91-3.26c-.64-.79-1.39-.59-2.24-.47Z"/>
      <g>
        <path d="M3.22.24c2.37-.52,4.2.16,4.91,2.57.9,13.49-1.14,28.36,0,41.68.64,7.55,4.32,13.84,10.55,18.03,1.84,1.24,5.04,1.33,5.54,3.99l-1.2,44.61c1.33,13.18-2.34,28.86-.6,41.73.98,7.21,11.33,6.07,11.73-1.9.3-6.02-.84-13.5-1.01-19.53-.34-12.5-.12-25.08-1.19-37.51,1.23-7.72-1.51-18.21-.41-25.47.72-4.79,3.62-4.23,6.94-6.76,4.9-3.72,8.47-9.81,9.01-16,1.18-13.68-.94-29.01,0-42.87.7-3.74,7.01-3.74,7.71,0l-.13,48.07c-1.46,5.7-4.15,10.73-8.51,14.71-1.51,1.37-6.54,4.11-6.83,5.67l2.34,83.31c-3.47,15.04-25.02,14.64-27.89-.59l2.34-82.11c-2.76-3.14-6.61-4.9-9.52-8.35C-4.98,49.33,2.55,20.91.38,3.36.3,1.74,1.75.56,3.22.24Z"/>
        <path d="M34.18.25c2.63-.77,5.33.28,5.56,3.12-1.36,11.98,1.74,27.78-.07,39.29-.71,4.5-7.1,4.72-7.72-.55-1.39-11.97,1.08-26.49-.02-38.74-.05-1.24,1.09-2.78,2.24-3.12Z"/>
        <path d="M18.71.22c2.49-.51,4.62.67,4.95,3.14,1.59,11.82-1.27,27.15,0,39.36-.63,4.92-7.13,4.34-7.79-1.21,1.05-11.85-1.36-25.96,0-37.53.21-1.83.84-3.34,2.83-3.75Z"/>
      </g>
    </g>
  </g>
</svg>